<svg xmlns="http://www.w3.org/2000/svg" viewBox="0 0 1280 720" width="1280" height="720">
  <defs>
    <linearGradient id="heroGreen" x1="0%" y1="0%" x2="100%" y2="0%">
      <stop offset="0%" stop-color="#1F8A70" />
      <stop offset="100%" stop-color="#3A86FF" />
    </linearGradient>
    <marker id="arrowPrimary" markerWidth="10" markerHeight="10" refX="9" refY="5" orient="auto" markerUnits="strokeWidth">
      <path d="M0,0 L10,5 L0,10 Z" fill="#1F8A70" />
    </marker>
  </defs>
  <g id="background">
    <rect x="0" y="0" width="1280" height="720" fill="#FBFFF7" />
    <circle cx="640" cy="370" r="300" fill="#EAF7EF" />
    <circle cx="1020" cy="146" r="95" fill="#FFB703" fill-opacity="0.14" />
  </g>
  <g id="header">
    <text x="56" y="78" font-family="'Microsoft YaHei', 'PingFang SC', Arial, sans-serif" font-size="14" font-weight="700" fill="#1F8A70" letter-spacing="2">SOLUTION</text>
    <text x="1224" y="78" text-anchor="end" font-family="'Microsoft YaHei', 'PingFang SC', Arial, sans-serif" font-size="11" fill="#74807C">03 / 16</text>
  </g>
  <g id="title-block">
    <text x="640" y="156" text-anchor="middle" font-family="'Trebuchet MS', 'Microsoft YaHei', 'PingFang SC', sans-serif" font-size="58" font-weight="800" fill="#182026">直接推荐具体菜品</text>
    <text x="640" y="204" text-anchor="middle" font-family="'Microsoft YaHei', 'PingFang SC', Arial, sans-serif" font-size="22" font-weight="700" fill="#4D5A57">把推荐主体从“商家”前移到“菜品或套餐”，缩短决策链路。</text>
  </g>
  <g id="before-block">
    <path fill="#FFFFFF" stroke="#BFD9CC" stroke-width="2" d="M116,286 H446 A30,30 0 0 1 476,316 V494 A30,30 0 0 1 446,524 H116 A30,30 0 0 1 86,494 V316 A30,30 0 0 1 116,286 Z" />
    <path fill="#EAF7EF" d="M140,318 H174 A24,24 0 0 1 198,342 V376 A24,24 0 0 1 174,400 H140 A24,24 0 0 1 116,376 V342 A24,24 0 0 1 140,318 Z" />
    
  <g transform="translate(137, 339) scale(0.15625)" fill="#74807C">
    <path d="M224,96v16a32,32,0,0,1-64,0V96H96v16a32,32,0,0,1-64,0V96L46.34,45.8A8,8,0,0,1,54,40H202a8,8,0,0,1,7.69,5.8Z" opacity="0.2" />
    <path d="M232,96a7.89,7.89,0,0,0-.3-2.2L217.35,43.6A16.07,16.07,0,0,0,202,32H54A16.07,16.07,0,0,0,38.65,43.6L24.31,93.8A7.89,7.89,0,0,0,24,96v16a40,40,0,0,0,16,32v64a16,16,0,0,0,16,16H200a16,16,0,0,0,16-16V144a40,40,0,0,0,16-32ZM54,48H202l11.42,40H42.61Zm50,56h48v8a24,24,0,0,1-48,0Zm-16,0v8a24,24,0,0,1-48,0v-8ZM200,208H56V151.2a40.57,40.57,0,0,0,8,.8,40,40,0,0,0,32-16,40,40,0,0,0,64,0,40,40,0,0,0,32,16,40.57,40.57,0,0,0,8-.8Zm-8-72a24,24,0,0,1-24-24v-8h48v8A24,24,0,0,1,192,136Z" />
  </g>
    <text x="224" y="350" font-family="'Microsoft YaHei', 'PingFang SC', Arial, sans-serif" font-size="26" font-weight="800" fill="#182026">传统路径</text>
    <text x="224" y="386" font-family="'Microsoft YaHei', 'PingFang SC', Arial, sans-serif" font-size="18" fill="#4D5A57">先找商家，再翻菜单</text>
    <line x1="128" y1="438" x2="430" y2="438" stroke="#DCEBE3" stroke-width="2" />
    <text x="128" y="472" font-family="'Microsoft YaHei', 'PingFang SC', Arial, sans-serif" font-size="18" fill="#4D5A57">“这家好像不错”</text>
    <text x="128" y="506" font-family="'Microsoft YaHei', 'PingFang SC', Arial, sans-serif" font-size="18" fill="#4D5A57">但还要继续决定吃什么</text>
  </g>
  <g id="arrow-shift">
    <line x1="508" y1="405" x2="760" y2="405" stroke="#1F8A70" stroke-width="5" stroke-linecap="round" marker-end="url(#arrowPrimary)" />
    <path fill="#FFFFFF" stroke="#BFD9CC" stroke-width="1.5" d="M575,366 H689 A17,17 0 0 1 706,383 V383 A17,17 0 0 1 689,400 H575 A17,17 0 0 1 558,383 V383 A17,17 0 0 1 575,366 Z" />
    <text x="632" y="389" text-anchor="middle" font-family="'Microsoft YaHei', 'PingFang SC', Arial, sans-serif" font-size="15" font-weight="700" fill="#1F8A70">决策前移</text>
  </g>
  <g id="after-block">
    <path fill="#FFFFFF" stroke="#1F8A70" stroke-width="3" d="M838,264 H1160 A34,34 0 0 1 1194,298 V514 A34,34 0 0 1 1160,548 H838 A34,34 0 0 1 804,514 V298 A34,34 0 0 1 838,264 Z" />
    <path fill="#FFB703" fill-opacity="0.20" d="M864,300 H898 A28,28 0 0 1 926,328 V362 A28,28 0 0 1 898,390 H864 A28,28 0 0 1 836,362 V328 A28,28 0 0 1 864,300 Z" />
    
  <g transform="translate(858, 322) scale(0.179688)" fill="#FFB703">
    <path d="M224,112a96,96,0,0,1-56,87.3V208a8,8,0,0,1-8,8H96a8,8,0,0,1-8-8v-8.7A96,96,0,0,1,32,112Z" opacity="0.2" />
    <path d="M224,104h-8.37a88,88,0,0,0-175.26,0H32a8,8,0,0,0-8,8,104.35,104.35,0,0,0,56,92.28V208a16,16,0,0,0,16,16h64a16,16,0,0,0,16-16v-3.72A104.35,104.35,0,0,0,232,112,8,8,0,0,0,224,104ZM173.48,56.23q2.75,2.25,5.27,4.75a87.92,87.92,0,0,0-49.15,43H100.1A72.26,72.26,0,0,1,168,56C169.83,56,171.66,56.09,173.48,56.23Zm15.91,18.2A71.45,71.45,0,0,1,199.54,104H148.12A71.84,71.84,0,0,1,189.39,74.43ZM128,40a71.87,71.87,0,0,1,19,2.57A88.36,88.36,0,0,0,83.33,104H56.46A72.08,72.08,0,0,1,128,40Zm36.66,152A8,8,0,0,0,160,199.3V208H96v-8.7A8,8,0,0,0,91.34,192a88.29,88.29,0,0,1-51-72H215.63A88.29,88.29,0,0,1,164.66,192Z" />
  </g>
    <text x="952" y="338" font-family="'Microsoft YaHei', 'PingFang SC', Arial, sans-serif" font-size="28" font-weight="800" fill="#182026">Campus Foodie</text>
    <text x="952" y="376" font-family="'Microsoft YaHei', 'PingFang SC', Arial, sans-serif" font-size="18" fill="#4D5A57">直接给出具体菜品和推荐理由</text>
    <line x1="846" y1="426" x2="1152" y2="426" stroke="#DCEBE3" stroke-width="2" />
    <text x="846" y="464" font-family="'Microsoft YaHei', 'PingFang SC', Arial, sans-serif" font-size="20" font-weight="700" fill="#1F8A70">藤椒鸡双拼饭</text>
    <text x="846" y="498" font-family="'Microsoft YaHei', 'PingFang SC', Arial, sans-serif" font-size="17" fill="#4D5A57">微辣、预算匹配、靠近图书馆</text>
    <text x="846" y="528" font-family="'Microsoft YaHei', 'PingFang SC', Arial, sans-serif" font-size="17" fill="#4D5A57">可查看地图、评价并收藏所属商家</text>
  </g>
  <g id="capability-strip">
    <path fill="url(#heroGreen)" d="M264,596 H1016 A26,26 0 0 1 1042,622 V622 A26,26 0 0 1 1016,648 H264 A26,26 0 0 1 238,622 V622 A26,26 0 0 1 264,596 Z" />
    
  <g transform="translate(270, 608) scale(0.109375)" fill="#FFFFFF">
    <path d="M128,24a80,80,0,0,0-80,80c0,72,80,128,80,128s80-56,80-128A80,80,0,0,0,128,24Zm0,112a32,32,0,1,1,32-32A32,32,0,0,1,128,136Z" opacity="0.2" />
    <path d="M128,64a40,40,0,1,0,40,40A40,40,0,0,0,128,64Zm0,64a24,24,0,1,1,24-24A24,24,0,0,1,128,128Zm0-112a88.1,88.1,0,0,0-88,88c0,31.4,14.51,64.68,42,96.25a254.19,254.19,0,0,0,41.45,38.3,8,8,0,0,0,9.18,0A254.19,254.19,0,0,0,174,200.25c27.45-31.57,42-64.85,42-96.25A88.1,88.1,0,0,0,128,16Zm0,206c-16.53-13-72-60.75-72-118a72,72,0,0,1,144,0C200,161.23,144.53,209,128,222Z" />
  </g>
    <text x="310" y="630" font-family="'Microsoft YaHei', 'PingFang SC', Arial, sans-serif" font-size="17" font-weight="700" fill="#FFFFFF">地图发现</text>
    
  <g transform="translate(450, 608) scale(0.109375)" fill="#FFFFFF">
    <path d="M224,128A96,96,0,0,1,79.93,211.11h0L42.54,223.58a8,8,0,0,1-10.12-10.12l12.47-37.39h0A96,96,0,1,1,224,128Z" opacity="0.2" />
    <path d="M128,24A104,104,0,0,0,36.18,176.88L24.83,210.93a16,16,0,0,0,20.24,20.24l34.05-11.35A104,104,0,1,0,128,24Zm0,192a87.87,87.87,0,0,1-44.06-11.81,8,8,0,0,0-6.54-.67L40,216,52.47,178.6a8,8,0,0,0-.66-6.54A88,88,0,1,1,128,216Z" />
  </g>
    <text x="490" y="630" font-family="'Microsoft YaHei', 'PingFang SC', Arial, sans-serif" font-size="17" font-weight="700" fill="#FFFFFF">真实评价</text>
    
  <g transform="translate(630, 608) scale(0.109375)" fill="#FFFFFF">
    <path d="M224,64v88H32V64A16,16,0,0,1,48,48H208A16,16,0,0,1,224,64Z" opacity="0.2" />
    <path d="M208,40H48A24,24,0,0,0,24,64V176a24,24,0,0,0,24,24h72v16H96a8,8,0,0,0,0,16h64a8,8,0,0,0,0-16H136V200h72a24,24,0,0,0,24-24V64A24,24,0,0,0,208,40ZM48,56H208a8,8,0,0,1,8,8v80H40V64A8,8,0,0,1,48,56ZM208,184H48a8,8,0,0,1-8-8V160H216v16A8,8,0,0,1,208,184Z" />
  </g>
    <text x="670" y="630" font-family="'Microsoft YaHei', 'PingFang SC', Arial, sans-serif" font-size="17" font-weight="700" fill="#FFFFFF">后台治理</text>
    
  <g transform="translate(810, 608) scale(0.109375)" fill="#FFFFFF">
    <path d="M240,124a48,48,0,0,1-32,45.27h0V176a40,40,0,0,1-80,0,40,40,0,0,1-80,0v-6.73h0a48,48,0,0,1,0-90.54V72a40,40,0,0,1,80,0,40,40,0,0,1,80,0v6.73A48,48,0,0,1,240,124Z" opacity="0.2" />
    <path d="M248,124a56.11,56.11,0,0,0-32-50.61V72a48,48,0,0,0-88-26.49A48,48,0,0,0,40,72v1.39a56,56,0,0,0,0,101.2V176a48,48,0,0,0,88,26.49A48,48,0,0,0,216,176v-1.41A56.09,56.09,0,0,0,248,124ZM88,208a32,32,0,0,1-31.81-28.56A55.87,55.87,0,0,0,64,180h8a8,8,0,0,0,0-16H64A40,40,0,0,1,50.67,86.27,8,8,0,0,0,56,78.73V72a32,32,0,0,1,64,0v68.26A47.8,47.8,0,0,0,88,128a8,8,0,0,0,0,16,32,32,0,0,1,0,64Zm104-44h-8a8,8,0,0,0,0,16h8a55.87,55.87,0,0,0,7.81-.56A32,32,0,1,1,168,144a8,8,0,0,0,0-16,47.8,47.8,0,0,0-32,12.26V72a32,32,0,0,1,64,0v6.73a8,8,0,0,0,5.33,7.54A40,40,0,0,1,192,164Zm16-52a8,8,0,0,1-8,8h-4a36,36,0,0,1-36-36V80a8,8,0,0,1,16,0v4a20,20,0,0,0,20,20h4A8,8,0,0,1,208,112ZM60,120H56a8,8,0,0,1,0-16h4A20,20,0,0,0,80,84V80a8,8,0,0,1,16,0v4A36,36,0,0,1,60,120Z" />
  </g>
    <text x="850" y="630" font-family="'Microsoft YaHei', 'PingFang SC', Arial, sans-serif" font-size="17" font-weight="700" fill="#FFFFFF">受约束 AI</text>
  </g>
</svg>