<?xml version='1.0' encoding='UTF-8'?>
<svg xmlns="http://www.w3.org/2000/svg" viewBox="0 0 1280 720" width="1280" height="720">
  <defs>
    <linearGradient id="phoneGlow" x1="0%" y1="0%" x2="100%" y2="100%">
      <stop offset="0%" stop-color="#1F8A70" />
      <stop offset="100%" stop-color="#3A86FF" />
    </linearGradient>
  </defs>
  <g id="background">
    <rect x="0" y="0" width="1280" height="720" fill="#FBFFF7" />
    <path fill="#EAF7EF" d="M74,118 H510 A32,32 0 0 1 542,150 V634 A32,32 0 0 1 510,666 H74 A32,32 0 0 1 42,634 V150 A32,32 0 0 1 74,118 Z" />
    <circle cx="462" cy="156" r="88" fill="#FFB703" fill-opacity="0.18" />
  </g>
  <g id="header">
    <text x="596" y="82" font-family="'Trebuchet MS', 'Microsoft YaHei', 'PingFang SC', sans-serif" font-size="34" font-weight="800" fill="#182026">首页只服务一个问题</text>
    <text x="596" y="116" font-family="'Microsoft YaHei', 'PingFang SC', Arial, sans-serif" font-size="18" font-weight="700" fill="#4D5A57">用户打开首页时，系统应当帮助他快速决定吃什么。</text>
    <text x="1224" y="72" text-anchor="end" font-family="'Microsoft YaHei', 'PingFang SC', Arial, sans-serif" font-size="11" fill="#74807C">06 / 16</text>
  </g>
  <g id="phone-mockup">
    <path fill="#4D5A57" d="M212,104 H376 A42,42 0 0 1 418,146 V582 A42,42 0 0 1 376,624 H212 A42,42 0 0 1 170,582 V146 A42,42 0 0 1 212,104 Z" />
    <path fill="#FFFFFF" d="M214,116 H374 A32,32 0 0 1 406,148 V580 A32,32 0 0 1 374,612 H214 A32,32 0 0 1 182,580 V148 A32,32 0 0 1 214,116 Z" />
    <path fill="#74807C" d="M256.50,142 H331.50 A3.50,3.50 0 0 1 335,145.50 V145.50 A3.50,3.50 0 0 1 331.50,149 H256.50 A3.50,3.50 0 0 1 253,145.50 V145.50 A3.50,3.50 0 0 1 256.50,142 Z" />
    <circle cx="215" cy="176" r="18" fill="#EAF7EF" />
    
  <g transform="translate(203, 164) scale(0.09375)" fill="#1F8A70">
    <path d="M224,64,128,96,32,64l96-32Z" opacity="0.2" />
    <path d="M226.53,56.41l-96-32a8,8,0,0,0-5.06,0l-96,32a8,8,0,0,0-5.4,6.75A5,5,0,0,0,24,64v80a8,8,0,0,0,16,0V75.1L73.59,86.29a64,64,0,0,0,20.65,88.05c-18,7.06-33.56,19.83-44.94,37.29a8,8,0,1,0,13.4,8.74C77.77,197.25,101.57,184,128,184s50.23,13.25,65.3,36.37a8,8,0,0,0,13.4-8.74c-11.38-17.46-27-30.23-44.94-37.29a64,64,0,0,0,20.65-88l44.12-14.7a8,8,0,0,0,0-15.18ZM176,120A48,48,0,1,1,89.35,91.55l36.12,12a8,8,0,0,0,5.06,0l36.12-12A47.89,47.89,0,0,1,176,120ZM128,87.57,57.3,64,128,40.43,198.7,64Z" />
  </g>
    <text x="246" y="180" font-family="'Microsoft YaHei', 'PingFang SC', Arial, sans-serif" font-size="13" font-weight="800" fill="#182026">中午好，今天吃点什么？</text>
    <path fill="#EAF7EF" stroke="#BFD9CC" stroke-width="1" d="M226,206 H362 A16,16 0 0 1 378,222 V222 A16,16 0 0 1 362,238 H226 A16,16 0 0 1 210,222 V222 A16,16 0 0 1 226,206 Z" />
    <text x="232" y="227" font-family="'Microsoft YaHei', 'PingFang SC', Arial, sans-serif" font-size="11" fill="#4D5A57">搜索菜品、商家、地点</text>
    <g id="phone-filter-row">
      <path fill="#1F8A70" d="M222,256 H246 A12,12 0 0 1 258,268 V268 A12,12 0 0 1 246,280 H222 A12,12 0 0 1 210,268 V268 A12,12 0 0 1 222,256 Z" />
      <text x="234" y="272" text-anchor="middle" font-family="'Microsoft YaHei', 'PingFang SC', Arial, sans-serif" font-size="10" font-weight="700" fill="#FFFFFF">微辣</text>
      <path fill="#EAF7EF" d="M278,256 H312 A12,12 0 0 1 324,268 V268 A12,12 0 0 1 312,280 H278 A12,12 0 0 1 266,268 V268 A12,12 0 0 1 278,256 Z" />
      <text x="295" y="272" text-anchor="middle" font-family="'Microsoft YaHei', 'PingFang SC', Arial, sans-serif" font-size="10" fill="#1F8A70">20元内</text>
      <path fill="#EAF7EF" d="M344,256 H366 A12,12 0 0 1 378,268 V268 A12,12 0 0 1 366,280 H344 A12,12 0 0 1 332,268 V268 A12,12 0 0 1 344,256 Z" />
      <text x="355" y="272" text-anchor="middle" font-family="'Microsoft YaHei', 'PingFang SC', Arial, sans-serif" font-size="10" fill="#1F8A70">图书馆</text>
    </g>
    <g id="recommend-card-main">
      <path fill="#FBFFF7" stroke="#BFD9CC" stroke-width="1.2" d="M230,304 H358 A20,20 0 0 1 378,324 V434 A20,20 0 0 1 358,454 H230 A20,20 0 0 1 210,434 V324 A20,20 0 0 1 230,304 Z" />
      <path fill="#FFB703" fill-opacity="0.24" d="M242,322 H264 A16,16 0 0 1 280,338 V360 A16,16 0 0 1 264,376 H242 A16,16 0 0 1 226,360 V338 A16,16 0 0 1 242,322 Z" />
      
  <g transform="translate(240, 336) scale(0.101562)" fill="#FFB703">
    <path d="M224,112a96,96,0,0,1-56,87.3V208a8,8,0,0,1-8,8H96a8,8,0,0,1-8-8v-8.7A96,96,0,0,1,32,112Z" opacity="0.2" />
    <path d="M224,104h-8.37a88,88,0,0,0-175.26,0H32a8,8,0,0,0-8,8,104.35,104.35,0,0,0,56,92.28V208a16,16,0,0,0,16,16h64a16,16,0,0,0,16-16v-3.72A104.35,104.35,0,0,0,232,112,8,8,0,0,0,224,104ZM173.48,56.23q2.75,2.25,5.27,4.75a87.92,87.92,0,0,0-49.15,43H100.1A72.26,72.26,0,0,1,168,56C169.83,56,171.66,56.09,173.48,56.23Zm15.91,18.2A71.45,71.45,0,0,1,199.54,104H148.12A71.84,71.84,0,0,1,189.39,74.43ZM128,40a71.87,71.87,0,0,1,19,2.57A88.36,88.36,0,0,0,83.33,104H56.46A72.08,72.08,0,0,1,128,40Zm36.66,152A8,8,0,0,0,160,199.3V208H96v-8.7A8,8,0,0,0,91.34,192a88.29,88.29,0,0,1-51-72H215.63A88.29,88.29,0,0,1,164.66,192Z" />
  </g>
      <text x="294" y="342" font-family="'Microsoft YaHei', 'PingFang SC', Arial, sans-serif" font-size="13" font-weight="800" fill="#182026">藤椒鸡双拼饭</text>
      <text x="294" y="362" font-family="'Microsoft YaHei', 'PingFang SC', Arial, sans-serif" font-size="10" fill="#4D5A57">二食堂 · 4.7 · ¥18</text>
      <path fill="#EAF7EF" d="M238,392 H350 A12,12 0 0 1 362,404 V414 A12,12 0 0 1 350,426 H238 A12,12 0 0 1 226,414 V404 A12,12 0 0 1 238,392 Z" />
      <text x="238" y="413" font-family="'Microsoft YaHei', 'PingFang SC', Arial, sans-serif" font-size="10" font-weight="700" fill="#1F8A70">匹配你的微辣偏好</text>
    </g>
    <path fill="#EAF7EF" d="M226,470 H362 A16,16 0 0 1 378,486 V502 A16,16 0 0 1 362,518 H226 A16,16 0 0 1 210,502 V486 A16,16 0 0 1 226,470 Z" />
    <text x="230" y="500" font-family="'Microsoft YaHei', 'PingFang SC', Arial, sans-serif" font-size="11" fill="#4D5A57">更多推荐继续加载</text>
    <line x1="216" y1="552" x2="372" y2="552" stroke="#DCEBE3" stroke-width="1.5" />
    
  <g transform="translate(214, 562) scale(0.09375)" fill="#1F8A70">
    <path d="M192,56V200H64V56Z" opacity="0.2" />
    <path d="M176,16H80A24,24,0,0,0,56,40V216a24,24,0,0,0,24,24h96a24,24,0,0,0,24-24V40A24,24,0,0,0,176,16ZM72,64H184V192H72Zm8-32h96a8,8,0,0,1,8,8v8H72V40A8,8,0,0,1,80,32Zm96,192H80a8,8,0,0,1-8-8v-8H184v8A8,8,0,0,1,176,224Z" />
  </g>
    
  <g transform="translate(280, 562) scale(0.09375)" fill="#74807C">
    <path d="M128,24a80,80,0,0,0-80,80c0,72,80,128,80,128s80-56,80-128A80,80,0,0,0,128,24Zm0,112a32,32,0,1,1,32-32A32,32,0,0,1,128,136Z" opacity="0.2" />
    <path d="M128,64a40,40,0,1,0,40,40A40,40,0,0,0,128,64Zm0,64a24,24,0,1,1,24-24A24,24,0,0,1,128,128Zm0-112a88.1,88.1,0,0,0-88,88c0,31.4,14.51,64.68,42,96.25a254.19,254.19,0,0,0,41.45,38.3,8,8,0,0,0,9.18,0A254.19,254.19,0,0,0,174,200.25c27.45-31.57,42-64.85,42-96.25A88.1,88.1,0,0,0,128,16Zm0,206c-16.53-13-72-60.75-72-118a72,72,0,0,1,144,0C200,161.23,144.53,209,128,222Z" />
  </g>
    
  <g transform="translate(346, 562) scale(0.09375)" fill="#74807C">
    <path d="M224,128A96,96,0,0,1,79.93,211.11h0L42.54,223.58a8,8,0,0,1-10.12-10.12l12.47-37.39h0A96,96,0,1,1,224,128Z" opacity="0.2" />
    <path d="M128,24A104,104,0,0,0,36.18,176.88L24.83,210.93a16,16,0,0,0,20.24,20.24l34.05-11.35A104,104,0,1,0,128,24Zm0,192a87.87,87.87,0,0,1-44.06-11.81,8,8,0,0,0-6.54-.67L40,216,52.47,178.6a8,8,0,0,0-.66-6.54A88,88,0,1,1,128,216Z" />
  </g>
  </g>
  <g id="insight-main">
    <path fill="#FFFFFF" stroke="#BFD9CC" stroke-width="1.5" d="M620,170 H1158 A24,24 0 0 1 1182,194 V256 A24,24 0 0 1 1158,280 H620 A24,24 0 0 1 596,256 V194 A24,24 0 0 1 620,170 Z" />
    
  <g transform="translate(626, 200) scale(0.164062)" fill="#1F8A70">
    <path d="M208,40V168H152S152,64,208,40Z" opacity="0.2" />
    <path d="M72,88V40a8,8,0,0,1,16,0V88a8,8,0,0,1-16,0ZM216,40V224a8,8,0,0,1-16,0V176H152a8,8,0,0,1-8-8,268.75,268.75,0,0,1,7.22-56.88c9.78-40.49,28.32-67.63,53.63-78.47A8,8,0,0,1,216,40ZM200,53.9c-32.17,24.57-38.47,84.42-39.7,106.1H200ZM119.89,38.69a8,8,0,1,0-15.78,2.63L112,88.63a32,32,0,0,1-64,0l7.88-47.31a8,8,0,1,0-15.78-2.63l-8,48A8.17,8.17,0,0,0,32,88a48.07,48.07,0,0,0,40,47.32V224a8,8,0,0,0,16,0V135.32A48.07,48.07,0,0,0,128,88a8.17,8.17,0,0,0-.11-1.31Z" />
  </g>
    <text x="690" y="213" font-family="'Microsoft YaHei', 'PingFang SC', Arial, sans-serif" font-size="22" font-weight="800" fill="#182026">不是推荐“地点”，而是推进一次决策</text>
    <text x="690" y="248" font-family="'Microsoft YaHei', 'PingFang SC', Arial, sans-serif" font-size="17" fill="#4D5A57">首页信息层级围绕菜品卡片展开，让用户马上看到可执行答案。</text>
  </g>
  <g id="card-search-filter">
    <path fill="#FFFFFF" stroke="#BFD9CC" stroke-width="1.5" d="M618,318 H1160 A22,22 0 0 1 1182,340 V382 A22,22 0 0 1 1160,404 H618 A22,22 0 0 1 596,382 V340 A22,22 0 0 1 618,318 Z" />
    <path fill="#EAF7EF" d="M640,340 H656 A14,14 0 0 1 670,354 V370 A14,14 0 0 1 656,384 H640 A14,14 0 0 1 626,370 V354 A14,14 0 0 1 640,340 Z" />
    
  <g transform="translate(636, 350) scale(0.09375)" fill="#1F8A70">
    <path d="M216,64V192H128V64Z" opacity="0.2" />
    <path d="M224,128a8,8,0,0,1-8,8H128a8,8,0,0,1,0-16h88A8,8,0,0,1,224,128ZM128,72h88a8,8,0,0,0,0-16H128a8,8,0,0,0,0,16Zm88,112H128a8,8,0,0,0,0,16h88a8,8,0,0,0,0-16ZM82.34,42.34,56,68.69,45.66,58.34A8,8,0,0,0,34.34,69.66l16,16a8,8,0,0,0,11.32,0l32-32A8,8,0,0,0,82.34,42.34Zm0,64L56,132.69,45.66,122.34a8,8,0,0,0-11.32,11.32l16,16a8,8,0,0,0,11.32,0l32-32a8,8,0,0,0-11.32-11.32Zm0,64L56,196.69,45.66,186.34a8,8,0,0,0-11.32,11.32l16,16a8,8,0,0,0,11.32,0l32-32a8,8,0,0,0-11.32-11.32Z" />
  </g>
    <text x="690" y="354" font-family="'Microsoft YaHei', 'PingFang SC', Arial, sans-serif" font-size="20" font-weight="800" fill="#182026">搜索与二级筛选</text>
    <text x="690" y="382" font-family="'Microsoft YaHei', 'PingFang SC', Arial, sans-serif" font-size="16" fill="#4D5A57">按关键词、品类、地点、预算缩小范围。</text>
  </g>
  <g id="card-recommend">
    <path fill="#FFFFFF" stroke="#BFD9CC" stroke-width="1.5" d="M618,426 H1160 A22,22 0 0 1 1182,448 V490 A22,22 0 0 1 1160,512 H618 A22,22 0 0 1 596,490 V448 A22,22 0 0 1 618,426 Z" />
    <path fill="#EAF7EF" d="M640,448 H656 A14,14 0 0 1 670,462 V478 A14,14 0 0 1 656,492 H640 A14,14 0 0 1 626,478 V462 A14,14 0 0 1 640,448 Z" />
    
  <g transform="translate(636, 458) scale(0.09375)" fill="#FFB703">
    <path d="M224,112a96,96,0,0,1-56,87.3V208a8,8,0,0,1-8,8H96a8,8,0,0,1-8-8v-8.7A96,96,0,0,1,32,112Z" opacity="0.2" />
    <path d="M224,104h-8.37a88,88,0,0,0-175.26,0H32a8,8,0,0,0-8,8,104.35,104.35,0,0,0,56,92.28V208a16,16,0,0,0,16,16h64a16,16,0,0,0,16-16v-3.72A104.35,104.35,0,0,0,232,112,8,8,0,0,0,224,104ZM173.48,56.23q2.75,2.25,5.27,4.75a87.92,87.92,0,0,0-49.15,43H100.1A72.26,72.26,0,0,1,168,56C169.83,56,171.66,56.09,173.48,56.23Zm15.91,18.2A71.45,71.45,0,0,1,199.54,104H148.12A71.84,71.84,0,0,1,189.39,74.43ZM128,40a71.87,71.87,0,0,1,19,2.57A88.36,88.36,0,0,0,83.33,104H56.46A72.08,72.08,0,0,1,128,40Zm36.66,152A8,8,0,0,0,160,199.3V208H96v-8.7A8,8,0,0,0,91.34,192a88.29,88.29,0,0,1-51-72H215.63A88.29,88.29,0,0,1,164.66,192Z" />
  </g>
    <text x="690" y="462" font-family="'Microsoft YaHei', 'PingFang SC', Arial, sans-serif" font-size="20" font-weight="800" fill="#182026">推荐卡片可直接行动</text>
    <text x="690" y="490" font-family="'Microsoft YaHei', 'PingFang SC', Arial, sans-serif" font-size="16" fill="#4D5A57">菜名、商家、评分、价格、收藏入口在同一张卡内。</text>
  </g>
  <g id="card-reason">
    <path fill="#FFFFFF" stroke="#BFD9CC" stroke-width="1.5" d="M618,534 H1160 A22,22 0 0 1 1182,556 V598 A22,22 0 0 1 1160,620 H618 A22,22 0 0 1 596,598 V556 A22,22 0 0 1 618,534 Z" />
    <path fill="#EAF7EF" d="M640,556 H656 A14,14 0 0 1 670,570 V586 A14,14 0 0 1 656,600 H640 A14,14 0 0 1 626,586 V570 A14,14 0 0 1 640,556 Z" />
    
  <g transform="translate(636, 566) scale(0.09375)" fill="#3A86FF">
    <path d="M194.82,151.43l-51.66,19a7.88,7.88,0,0,0-4.69,4.69l-19,51.66a7.92,7.92,0,0,1-14.86,0l-19-51.66a7.88,7.88,0,0,0-4.69-4.69l-51.66-19a7.92,7.92,0,0,1,0-14.86l51.66-19a7.88,7.88,0,0,0,4.69-4.69l19-51.66a7.92,7.92,0,0,1,14.86,0l19,51.66a7.88,7.88,0,0,0,4.69,4.69l51.66,19A7.92,7.92,0,0,1,194.82,151.43Z" opacity="0.2" />
    <path d="M197.58,129.06l-51.61-19-19-51.65a15.92,15.92,0,0,0-29.88,0L78.07,110l-51.65,19a15.92,15.92,0,0,0,0,29.88L78,178l19,51.62a15.92,15.92,0,0,0,29.88,0l19-51.61,51.65-19a15.92,15.92,0,0,0,0-29.88ZM140.39,163a15.87,15.87,0,0,0-9.43,9.43l-19,51.46L93,172.39A15.87,15.87,0,0,0,83.61,163h0L32.15,144l51.46-19A15.87,15.87,0,0,0,93,115.61l19-51.46,19,51.46a15.87,15.87,0,0,0,9.43,9.43l51.46,19ZM144,40a8,8,0,0,1,8-8h16V16a8,8,0,0,1,16,0V32h16a8,8,0,0,1,0,16H184V64a8,8,0,0,1-16,0V48H152A8,8,0,0,1,144,40ZM248,88a8,8,0,0,1-8,8h-8v8a8,8,0,0,1-16,0V96h-8a8,8,0,0,1,0-16h8V72a8,8,0,0,1,16,0v8h8A8,8,0,0,1,248,88Z" />
  </g>
    <text x="690" y="570" font-family="'Microsoft YaHei', 'PingFang SC', Arial, sans-serif" font-size="20" font-weight="800" fill="#182026">理由让推荐可信</text>
    <text x="690" y="598" font-family="'Microsoft YaHei', 'PingFang SC', Arial, sans-serif" font-size="16" fill="#4D5A57">AI 只帮写理由，推荐的菜都来自真实数据。</text>
  </g>
</svg>