<svg xmlns="http://www.w3.org/2000/svg" viewBox="0 0 1280 720" width="1280" height="720">
  <defs>
    <marker id="arrowBlue" markerWidth="10" markerHeight="10" refX="9" refY="5" orient="auto" markerUnits="strokeWidth">
      <path d="M0,0 L10,5 L0,10 Z" fill="#3A86FF" />
    </marker>
  </defs>
  <g id="background">
    <rect x="0" y="0" width="1280" height="720" fill="#FBFFF7" />
    <path fill="#EAF7EF" d="M86,126 H1194 A32,32 0 0 1 1226,158 V614 A32,32 0 0 1 1194,646 H86 A32,32 0 0 1 54,614 V158 A32,32 0 0 1 86,126 Z" />
    <circle cx="650" cy="384" r="250" fill="#FFFFFF" fill-opacity="0.56" />
  </g>
  <g id="header">
    <text x="56" y="72" font-family="'Trebuchet MS', 'Microsoft YaHei', 'PingFang SC', sans-serif" font-size="34" font-weight="800" fill="#182026">找得到，也评得上</text>
    <text x="56" y="104" font-family="'Microsoft YaHei', 'PingFang SC', Arial, sans-serif" font-size="16" font-weight="700" fill="#4D5A57">地图解决位置问题，评价入口让消费体验回流成公共信息。</text>
    <text x="1224" y="72" text-anchor="end" font-family="'Microsoft YaHei', 'PingFang SC', Arial, sans-serif" font-size="11" fill="#74807C">07 / 16</text>
  </g>
  <g id="phone-map">
    <path fill="#182026" d="M162,150 H362 A42,42 0 0 1 404,192 V576 A42,42 0 0 1 362,618 H162 A42,42 0 0 1 120,576 V192 A42,42 0 0 1 162,150 Z" />
    <path fill="#FFFFFF" d="M170,172 H354 A30,30 0 0 1 384,202 V566 A30,30 0 0 1 354,596 H170 A30,30 0 0 1 140,566 V202 A30,30 0 0 1 170,172 Z" />
    <text x="164" y="214" font-family="'Microsoft YaHei', 'PingFang SC', Arial, sans-serif" font-size="16" font-weight="800" fill="#182026">地图发现</text>
    <path fill="#EAF7EF" stroke="#BFD9CC" stroke-width="1" d="M181,232 H343 A17,17 0 0 1 360,249 V249 A17,17 0 0 1 343,266 H181 A17,17 0 0 1 164,249 V249 A17,17 0 0 1 181,232 Z" />
    <text x="184" y="254" font-family="'Microsoft YaHei', 'PingFang SC', Arial, sans-serif" font-size="12" fill="#4D5A57">筛选：价格 / 类别 / 收藏</text>
    <path fill="#FBFFF7" stroke="#BFD9CC" stroke-width="1.5" d="M184,292 H340 A20,20 0 0 1 360,312 V442 A20,20 0 0 1 340,462 H184 A20,20 0 0 1 164,442 V312 A20,20 0 0 1 184,292 Z" />
    <path d="M 178 420 C 210 396, 224 356, 270 348 S 320 330, 348 308" fill="none" stroke="#DCEBE3" stroke-width="5" stroke-linecap="round" />
    <path d="M 178 326 C 220 342, 248 392, 310 414 S 332 444, 350 450" fill="none" stroke="#DCEBE3" stroke-width="4" stroke-linecap="round" />
    <circle cx="222" cy="360" r="16" fill="#3A86FF" />
    
  <g transform="translate(210, 348) scale(0.09375)" fill="#FFFFFF">
    <path d="M128,24a80,80,0,0,0-80,80c0,72,80,128,80,128s80-56,80-128A80,80,0,0,0,128,24Zm0,112a32,32,0,1,1,32-32A32,32,0,0,1,128,136Z" opacity="0.2" />
    <path d="M128,64a40,40,0,1,0,40,40A40,40,0,0,0,128,64Zm0,64a24,24,0,1,1,24-24A24,24,0,0,1,128,128Zm0-112a88.1,88.1,0,0,0-88,88c0,31.4,14.51,64.68,42,96.25a254.19,254.19,0,0,0,41.45,38.3,8,8,0,0,0,9.18,0A254.19,254.19,0,0,0,174,200.25c27.45-31.57,42-64.85,42-96.25A88.1,88.1,0,0,0,128,16Zm0,206c-16.53-13-72-60.75-72-118a72,72,0,0,1,144,0C200,161.23,144.53,209,128,222Z" />
  </g>
    <circle cx="304" cy="334" r="14" fill="#1F8A70" />
    <text x="304" y="339" text-anchor="middle" font-family="'Microsoft YaHei', 'PingFang SC', Arial, sans-serif" font-size="12" font-weight="800" fill="#FFFFFF">3</text>
    <circle cx="328" cy="414" r="16" fill="#FFB703" />
    <text x="328" y="420" text-anchor="middle" font-family="'Microsoft YaHei', 'PingFang SC', Arial, sans-serif" font-size="16" font-weight="800" fill="#FFFFFF">★</text>
    <path fill="#EAF7EF" d="M182,482 H342 A18,18 0 0 1 360,500 V540 A18,18 0 0 1 342,558 H182 A18,18 0 0 1 164,540 V500 A18,18 0 0 1 182,482 Z" />
    <text x="184" y="512" font-family="'Microsoft YaHei', 'PingFang SC', Arial, sans-serif" font-size="14" font-weight="800" fill="#182026">二食堂窗口</text>
    <text x="184" y="538" font-family="'Microsoft YaHei', 'PingFang SC', Arial, sans-serif" font-size="12" fill="#4D5A57">收藏商家会合并显示，缩小也看得清</text>
  </g>
  <g id="flow-arrow">
    <line x1="456" y1="382" x2="808" y2="382" stroke="#3A86FF" stroke-width="5" stroke-linecap="round" marker-end="url(#arrowBlue)" />
    <path fill="#FFFFFF" stroke="#BFD9CC" stroke-width="1.5" d="M562,334 H702 A20,20 0 0 1 722,354 V354 A20,20 0 0 1 702,374 H562 A20,20 0 0 1 542,354 V354 A20,20 0 0 1 562,334 Z" />
    <text x="632" y="360" text-anchor="middle" font-family="'Microsoft YaHei', 'PingFang SC', Arial, sans-serif" font-size="16" font-weight="800" fill="#3A86FF">吃过之后</text>
    <text x="632" y="430" text-anchor="middle" font-family="'Microsoft YaHei', 'PingFang SC', Arial, sans-serif" font-size="18" font-weight="700" fill="#182026">体验回流</text>
  </g>
  <g id="phone-review">
    <path fill="#182026" d="M900,150 H1100 A42,42 0 0 1 1142,192 V576 A42,42 0 0 1 1100,618 H900 A42,42 0 0 1 858,576 V192 A42,42 0 0 1 900,150 Z" />
    <path fill="#FFFFFF" d="M908,172 H1092 A30,30 0 0 1 1122,202 V566 A30,30 0 0 1 1092,596 H908 A30,30 0 0 1 878,566 V202 A30,30 0 0 1 908,172 Z" />
    <text x="902" y="214" font-family="'Microsoft YaHei', 'PingFang SC', Arial, sans-serif" font-size="16" font-weight="800" fill="#182026">我也吃过</text>
    <path fill="#EAF7EF" d="M920,238 H1080 A18,18 0 0 1 1098,256 V278 A18,18 0 0 1 1080,296 H920 A18,18 0 0 1 902,278 V256 A18,18 0 0 1 920,238 Z" />
    <text x="922" y="266" font-family="'Microsoft YaHei', 'PingFang SC', Arial, sans-serif" font-size="14" font-weight="800" fill="#1F8A70">藤椒鸡双拼饭</text>
    <text x="922" y="286" font-family="'Microsoft YaHei', 'PingFang SC', Arial, sans-serif" font-size="11" fill="#4D5A57">二食堂 · 已选择菜品</text>
    <text x="902" y="334" font-family="'Microsoft YaHei', 'PingFang SC', Arial, sans-serif" font-size="14" font-weight="700" fill="#182026">评分</text>
    <text x="960" y="336" font-family="'Microsoft YaHei', 'PingFang SC', Arial, sans-serif" font-size="24" fill="#FFB703">★★★★★</text>
    <path fill="#FBFFF7" stroke="#BFD9CC" stroke-width="1.2" d="M920,360 H1080 A18,18 0 0 1 1098,378 V426 A18,18 0 0 1 1080,444 H920 A18,18 0 0 1 902,426 V378 A18,18 0 0 1 920,360 Z" />
    <text x="922" y="390" font-family="'Microsoft YaHei', 'PingFang SC', Arial, sans-serif" font-size="12" fill="#4D5A57">写下真实体验...</text>
    <path fill="#EAF7EF" stroke="#BFD9CC" stroke-width="1" d="M916,462 H942 A14,14 0 0 1 956,476 V502 A14,14 0 0 1 942,516 H916 A14,14 0 0 1 902,502 V476 A14,14 0 0 1 916,462 Z" />
    
  <g transform="translate(917, 477) scale(0.09375)" fill="#1F8A70">
    <path d="M224,128A96,96,0,0,1,79.93,211.11h0L42.54,223.58a8,8,0,0,1-10.12-10.12l12.47-37.39h0A96,96,0,1,1,224,128Z" opacity="0.2" />
    <path d="M128,24A104,104,0,0,0,36.18,176.88L24.83,210.93a16,16,0,0,0,20.24,20.24l34.05-11.35A104,104,0,1,0,128,24Zm0,192a87.87,87.87,0,0,1-44.06-11.81,8,8,0,0,0-6.54-.67L40,216,52.47,178.6a8,8,0,0,0-.66-6.54A88,88,0,1,1,128,216Z" />
  </g>
    <path fill="#EAF7EF" stroke="#BFD9CC" stroke-width="1" stroke-dasharray="4,4" d="M984,462 H1010 A14,14 0 0 1 1024,476 V502 A14,14 0 0 1 1010,516 H984 A14,14 0 0 1 970,502 V476 A14,14 0 0 1 984,462 Z" />
    <text x="997" y="494" text-anchor="middle" font-family="'Microsoft YaHei', 'PingFang SC', Arial, sans-serif" font-size="18" fill="#74807C">+</text>
    <path fill="#1F8A70" d="M919,538 H1081 A17,17 0 0 1 1098,555 V555 A17,17 0 0 1 1081,572 H919 A17,17 0 0 1 902,555 V555 A17,17 0 0 1 919,538 Z" />
    <text x="1000" y="560" text-anchor="middle" font-family="'Microsoft YaHei', 'PingFang SC', Arial, sans-serif" font-size="14" font-weight="800" fill="#FFFFFF">提交审核</text>
  </g>
  <g id="bottom-tags">
    <path fill="#FFFFFF" stroke="#BFD9CC" stroke-width="1" d="M168,646 H342 A18,18 0 0 1 360,664 V664 A18,18 0 0 1 342,682 H168 A18,18 0 0 1 150,664 V664 A18,18 0 0 1 168,646 Z" />
    <text x="255" y="669" text-anchor="middle" font-family="'Microsoft YaHei', 'PingFang SC', Arial, sans-serif" font-size="14" fill="#4D5A57">普通商家 / 合并显示 / 收藏标记</text>
    <path fill="#FFFFFF" stroke="#BFD9CC" stroke-width="1" d="M876,646 H1060 A18,18 0 0 1 1078,664 V664 A18,18 0 0 1 1060,682 H876 A18,18 0 0 1 858,664 V664 A18,18 0 0 1 876,646 Z" />
    <text x="968" y="669" text-anchor="middle" font-family="'Microsoft YaHei', 'PingFang SC', Arial, sans-serif" font-size="14" fill="#4D5A57">文字 / 图片 / 审核状态</text>
  </g>
</svg>