<svg xmlns="http://www.w3.org/2000/svg" viewBox="0 0 1280 720" width="1280" height="720">
  <defs>
    <marker id="arrowPrimary" markerWidth="10" markerHeight="10" refX="9" refY="5" orient="auto" markerUnits="strokeWidth">
      <path d="M0,0 L10,5 L0,10 Z" fill="#1F8A70" />
    </marker>
    <marker id="arrowWarn" markerWidth="10" markerHeight="10" refX="9" refY="5" orient="auto" markerUnits="strokeWidth">
      <path d="M0,0 L10,5 L0,10 Z" fill="#E45858" />
    </marker>
  </defs>
  <g id="background">
    <rect x="0" y="0" width="1280" height="720" fill="#FBFFF7" />
    <path fill="#EAF7EF" d="M80,132 H1200 A30,30 0 0 1 1230,162 V532 A30,30 0 0 1 1200,562 H80 A30,30 0 0 1 50,532 V162 A30,30 0 0 1 80,132 Z" />
  </g>
  <g id="header">
    <text x="56" y="64" font-family="'Trebuchet MS', 'Microsoft YaHei', 'PingFang SC', sans-serif" font-size="34" font-weight="800" fill="#182026">AI 只帮忙排序，不编造菜品</text>
    <text x="56" y="96" font-family="'Microsoft YaHei', 'PingFang SC', Arial, sans-serif" font-size="16" font-weight="700" fill="#4D5A57">先从真实数据里找出菜品，AI 只调整顺序和写理由。</text>
    <text x="1224" y="72" text-anchor="end" font-family="'Microsoft YaHei', 'PingFang SC', Arial, sans-serif" font-size="11" fill="#74807C">10 / 16</text>
  </g>
  <g id="main-flow-arrows">
    <line x1="218" y1="300" x2="300" y2="300" stroke="#1F8A70" stroke-width="4" marker-end="url(#arrowPrimary)" />
    <line x1="458" y1="300" x2="540" y2="300" stroke="#1F8A70" stroke-width="4" marker-end="url(#arrowPrimary)" />
    <line x1="698" y1="300" x2="780" y2="300" stroke="#1F8A70" stroke-width="4" marker-end="url(#arrowPrimary)" />
    <line x1="938" y1="300" x2="1020" y2="300" stroke="#1F8A70" stroke-width="4" marker-end="url(#arrowPrimary)" />
  </g>
  <g id="step-candidates">
    <path fill="#FFFFFF" stroke="#BFD9CC" stroke-width="1.5" d="M94,214 H196 A22,22 0 0 1 218,236 V364 A22,22 0 0 1 196,386 H94 A22,22 0 0 1 72,364 V236 A22,22 0 0 1 94,214 Z" />
    <path fill="#EAF7EF" d="M121,238 H141 A18,18 0 0 1 159,256 V276 A18,18 0 0 1 141,294 H121 A18,18 0 0 1 103,276 V256 A18,18 0 0 1 121,238 Z" />
    
  <g transform="translate(117, 252) scale(0.109375)" fill="#1F8A70">
    <path d="M216,80c0,26.51-39.4,48-88,48S40,106.51,40,80s39.4-48,88-48S216,53.49,216,80Z" opacity="0.2" />
    <path d="M128,24C74.17,24,32,48.6,32,80v96c0,31.4,42.17,56,96,56s96-24.6,96-56V80C224,48.6,181.83,24,128,24Zm80,104c0,9.62-7.88,19.43-21.61,26.92C170.93,163.35,150.19,168,128,168s-42.93-4.65-58.39-13.08C55.88,147.43,48,137.62,48,128V111.36c17.06,15,46.23,24.64,80,24.64s62.94-9.68,80-24.64ZM69.61,53.08C85.07,44.65,105.81,40,128,40s42.93,4.65,58.39,13.08C200.12,60.57,208,70.38,208,80s-7.88,19.43-21.61,26.92C170.93,115.35,150.19,120,128,120s-42.93-4.65-58.39-13.08C55.88,99.43,48,89.62,48,80S55.88,60.57,69.61,53.08ZM186.39,202.92C170.93,211.35,150.19,216,128,216s-42.93-4.65-58.39-13.08C55.88,195.43,48,185.62,48,176V159.36c17.06,15,46.23,24.64,80,24.64s62.94-9.68,80-24.64V176C208,185.62,200.12,195.43,186.39,202.92Z" />
  </g>
    <text x="145" y="326" text-anchor="middle" font-family="'Microsoft YaHei', 'PingFang SC', Arial, sans-serif" font-size="18" font-weight="800" fill="#182026">先找真实菜品</text>
    <text x="145" y="356" text-anchor="middle" font-family="'Microsoft YaHei', 'PingFang SC', Arial, sans-serif" font-size="13" fill="#4D5A57">校园、上架、筛选</text>
  </g>
  <g id="step-profile">
    <path fill="#FFFFFF" stroke="#BFD9CC" stroke-width="1.5" d="M334,214 H436 A22,22 0 0 1 458,236 V364 A22,22 0 0 1 436,386 H334 A22,22 0 0 1 312,364 V236 A22,22 0 0 1 334,214 Z" />
    <path fill="#EAF7EF" d="M361,238 H381 A18,18 0 0 1 399,256 V276 A18,18 0 0 1 381,294 H361 A18,18 0 0 1 343,276 V256 A18,18 0 0 1 361,238 Z" />
    
  <g transform="translate(357, 252) scale(0.109375)" fill="#3A86FF">
    <path d="M224,64,128,96,32,64l96-32Z" opacity="0.2" />
    <path d="M226.53,56.41l-96-32a8,8,0,0,0-5.06,0l-96,32a8,8,0,0,0-5.4,6.75A5,5,0,0,0,24,64v80a8,8,0,0,0,16,0V75.1L73.59,86.29a64,64,0,0,0,20.65,88.05c-18,7.06-33.56,19.83-44.94,37.29a8,8,0,1,0,13.4,8.74C77.77,197.25,101.57,184,128,184s50.23,13.25,65.3,36.37a8,8,0,0,0,13.4-8.74c-11.38-17.46-27-30.23-44.94-37.29a64,64,0,0,0,20.65-88l44.12-14.7a8,8,0,0,0,0-15.18ZM176,120A48,48,0,1,1,89.35,91.55l36.12,12a8,8,0,0,0,5.06,0l36.12-12A47.89,47.89,0,0,1,176,120ZM128,87.57,57.3,64,128,40.43,198.7,64Z" />
  </g>
    <text x="385" y="326" text-anchor="middle" font-family="'Microsoft YaHei', 'PingFang SC', Arial, sans-serif" font-size="18" font-weight="800" fill="#182026">去标识画像</text>
    <text x="385" y="356" text-anchor="middle" font-family="'Microsoft YaHei', 'PingFang SC', Arial, sans-serif" font-size="13" fill="#4D5A57">偏好、预算、区域</text>
  </g>
  <g id="step-deterministic">
    <path fill="#FFFFFF" stroke="#BFD9CC" stroke-width="1.5" d="M574,214 H676 A22,22 0 0 1 698,236 V364 A22,22 0 0 1 676,386 H574 A22,22 0 0 1 552,364 V236 A22,22 0 0 1 574,214 Z" />
    <path fill="#EAF7EF" d="M601,238 H621 A18,18 0 0 1 639,256 V276 A18,18 0 0 1 621,294 H601 A18,18 0 0 1 583,276 V256 A18,18 0 0 1 601,238 Z" />
    
  <g transform="translate(597, 252) scale(0.109375)" fill="#1F8A70">
    <path d="M216,64V192H128V64Z" opacity="0.2" />
    <path d="M224,128a8,8,0,0,1-8,8H128a8,8,0,0,1,0-16h88A8,8,0,0,1,224,128ZM128,72h88a8,8,0,0,0,0-16H128a8,8,0,0,0,0,16Zm88,112H128a8,8,0,0,0,0,16h88a8,8,0,0,0,0-16ZM82.34,42.34,56,68.69,45.66,58.34A8,8,0,0,0,34.34,69.66l16,16a8,8,0,0,0,11.32,0l32-32A8,8,0,0,0,82.34,42.34Zm0,64L56,132.69,45.66,122.34a8,8,0,0,0-11.32,11.32l16,16a8,8,0,0,0,11.32,0l32-32a8,8,0,0,0-11.32-11.32Zm0,64L56,196.69,45.66,186.34a8,8,0,0,0-11.32,11.32l16,16a8,8,0,0,0,11.32,0l32-32a8,8,0,0,0-11.32-11.32Z" />
  </g>
    <text x="625" y="326" text-anchor="middle" font-family="'Microsoft YaHei', 'PingFang SC', Arial, sans-serif" font-size="18" font-weight="800" fill="#182026">确定性排序</text>
    <text x="625" y="356" text-anchor="middle" font-family="'Microsoft YaHei', 'PingFang SC', Arial, sans-serif" font-size="13" fill="#4D5A57">基础可用路径</text>
  </g>
  <g id="step-deepseek">
    <path fill="#FFFFFF" stroke="#3A86FF" stroke-width="2.5" d="M814,198 H916 A22,22 0 0 1 938,220 V380 A22,22 0 0 1 916,402 H814 A22,22 0 0 1 792,380 V220 A22,22 0 0 1 814,198 Z" />
    <path fill="#EAF7EF" d="M841,226 H861 A18,18 0 0 1 879,244 V264 A18,18 0 0 1 861,282 H841 A18,18 0 0 1 823,264 V244 A18,18 0 0 1 841,226 Z" />
    
  <g transform="translate(837, 240) scale(0.109375)" fill="#3A86FF">
    <path d="M240,124a48,48,0,0,1-32,45.27h0V176a40,40,0,0,1-80,0,40,40,0,0,1-80,0v-6.73h0a48,48,0,0,1,0-90.54V72a40,40,0,0,1,80,0,40,40,0,0,1,80,0v6.73A48,48,0,0,1,240,124Z" opacity="0.2" />
    <path d="M248,124a56.11,56.11,0,0,0-32-50.61V72a48,48,0,0,0-88-26.49A48,48,0,0,0,40,72v1.39a56,56,0,0,0,0,101.2V176a48,48,0,0,0,88,26.49A48,48,0,0,0,216,176v-1.41A56.09,56.09,0,0,0,248,124ZM88,208a32,32,0,0,1-31.81-28.56A55.87,55.87,0,0,0,64,180h8a8,8,0,0,0,0-16H64A40,40,0,0,1,50.67,86.27,8,8,0,0,0,56,78.73V72a32,32,0,0,1,64,0v68.26A47.8,47.8,0,0,0,88,128a8,8,0,0,0,0,16,32,32,0,0,1,0,64Zm104-44h-8a8,8,0,0,0,0,16h8a55.87,55.87,0,0,0,7.81-.56A32,32,0,1,1,168,144a8,8,0,0,0,0-16,47.8,47.8,0,0,0-32,12.26V72a32,32,0,0,1,64,0v6.73a8,8,0,0,0,5.33,7.54A40,40,0,0,1,192,164Zm16-52a8,8,0,0,1-8,8h-4a36,36,0,0,1-36-36V80a8,8,0,0,1,16,0v4a20,20,0,0,0,20,20h4A8,8,0,0,1,208,112ZM60,120H56a8,8,0,0,1,0-16h4A20,20,0,0,0,80,84V80a8,8,0,0,1,16,0v4A36,36,0,0,1,60,120Z" />
  </g>
    <text x="865" y="316" text-anchor="middle" font-family="'Microsoft YaHei', 'PingFang SC', Arial, sans-serif" font-size="18" font-weight="800" fill="#182026">AI 调整顺序</text>
    <text x="865" y="346" text-anchor="middle" font-family="'Microsoft YaHei', 'PingFang SC', Arial, sans-serif" font-size="13" fill="#4D5A57">只选已有菜品</text>
    <path fill="#EAF7EF" d="M832,362 H898 A12,12 0 0 1 910,374 V374 A12,12 0 0 1 898,386 H832 A12,12 0 0 1 820,374 V374 A12,12 0 0 1 832,362 Z" />
    <text x="865" y="379" text-anchor="middle" font-family="'Microsoft YaHei', 'PingFang SC', Arial, sans-serif" font-size="11" font-weight="800" fill="#3A86FF">增强层</text>
  </g>
  <g id="step-validate">
    <path fill="#FFFFFF" stroke="#BFD9CC" stroke-width="1.5" d="M1054,214 H1156 A22,22 0 0 1 1178,236 V364 A22,22 0 0 1 1156,386 H1054 A22,22 0 0 1 1032,364 V236 A22,22 0 0 1 1054,214 Z" />
    <path fill="#EAF7EF" d="M1081,238 H1101 A18,18 0 0 1 1119,256 V276 A18,18 0 0 1 1101,294 H1081 A18,18 0 0 1 1063,276 V256 A18,18 0 0 1 1081,238 Z" />
    
  <g transform="translate(1077, 252) scale(0.109375)" fill="#22A06B">
    <path d="M216,56v58.77c0,84.18-71.31,112.07-85.54,116.8a7.54,7.54,0,0,1-4.92,0C111.31,226.86,40,199,40,114.79V56a8,8,0,0,1,8-8H208A8,8,0,0,1,216,56Z" opacity="0.2" />
    <path d="M208,40H48A16,16,0,0,0,32,56v58.78c0,89.61,75.82,119.34,91,124.39a15.53,15.53,0,0,0,10,0c15.2-5.05,91-34.78,91-124.39V56A16,16,0,0,0,208,40Zm0,74.79c0,78.42-66.35,104.62-80,109.18-13.53-4.51-80-30.69-80-109.18V56H208ZM82.34,141.66a8,8,0,0,1,11.32-11.32L112,148.68l50.34-50.34a8,8,0,0,1,11.32,11.32l-56,56a8,8,0,0,1-11.32,0Z" />
  </g>
    <text x="1105" y="326" text-anchor="middle" font-family="'Microsoft YaHei', 'PingFang SC', Arial, sans-serif" font-size="18" font-weight="800" fill="#182026">结果再检查</text>
    <text x="1105" y="356" text-anchor="middle" font-family="'Microsoft YaHei', 'PingFang SC', Arial, sans-serif" font-size="13" fill="#4D5A57">不能乱编、不能重复</text>
  </g>
  <g id="fallback-lane">
    <path d="M 1105 400 L 1105 492 L 625 492 L 625 390" fill="none" stroke="#E45858" stroke-width="3" stroke-dasharray="8,4" marker-end="url(#arrowWarn)" />
    <path fill="#FFFFFF" stroke="#E45858" stroke-width="2" d="M742,454 H1012 A22,22 0 0 1 1034,476 V508 A22,22 0 0 1 1012,530 H742 A22,22 0 0 1 720,508 V476 A22,22 0 0 1 742,454 Z" />
    
  <g transform="translate(748, 474) scale(0.132812)" fill="#E45858">
    <path d="M215.46,216H40.54C27.92,216,20,202.79,26.13,192.09L113.59,40.22c6.3-11,22.52-11,28.82,0l87.46,151.87C236,202.79,228.08,216,215.46,216Z" opacity="0.2" />
    <path d="M236.8,188.09,149.35,36.22h0a24.76,24.76,0,0,0-42.7,0L19.2,188.09a23.51,23.51,0,0,0,0,23.72A24.35,24.35,0,0,0,40.55,224h174.9a24.35,24.35,0,0,0,21.33-12.19A23.51,23.51,0,0,0,236.8,188.09ZM222.93,203.8a8.5,8.5,0,0,1-7.48,4.2H40.55a8.5,8.5,0,0,1-7.48-4.2,7.59,7.59,0,0,1,0-7.72L120.52,44.21a8.75,8.75,0,0,1,15,0l87.45,151.87A7.59,7.59,0,0,1,222.93,203.8ZM120,144V104a8,8,0,0,1,16,0v40a8,8,0,0,1-16,0Zm20,36a12,12,0,1,1-12-12A12,12,0,0,1,140,180Z" />
  </g>
    <text x="798" y="484" font-family="'Microsoft YaHei', 'PingFang SC', Arial, sans-serif" font-size="18" font-weight="800" fill="#182026">异常回退</text>
    <text fill="#4D5A57" font-size="13" font-family="'Microsoft YaHei', 'PingFang SC', Arial, sans-serif" x="798" y="506">AI 出错就回到基础排序</text><text fill="#4D5A57" font-size="13" font-family="'Microsoft YaHei', 'PingFang SC', Arial, sans-serif" x="798" y="525">虚构 ID 丢弃，保留基础排序</text></g>
  <g id="output-card">
    <path fill="#1F8A70" d="M301,592 H979 A29,29 0 0 1 1008,621 V621 A29,29 0 0 1 979,650 H301 A29,29 0 0 1 272,621 V621 A29,29 0 0 1 301,592 Z" />
    
  <g transform="translate(310, 606) scale(0.117188)" fill="#FFFFFF">
    <path d="M224,112a96,96,0,0,1-56,87.3V208a8,8,0,0,1-8,8H96a8,8,0,0,1-8-8v-8.7A96,96,0,0,1,32,112Z" opacity="0.2" />
    <path d="M224,104h-8.37a88,88,0,0,0-175.26,0H32a8,8,0,0,0-8,8,104.35,104.35,0,0,0,56,92.28V208a16,16,0,0,0,16,16h64a16,16,0,0,0,16-16v-3.72A104.35,104.35,0,0,0,232,112,8,8,0,0,0,224,104ZM173.48,56.23q2.75,2.25,5.27,4.75a87.92,87.92,0,0,0-49.15,43H100.1A72.26,72.26,0,0,1,168,56C169.83,56,171.66,56.09,173.48,56.23Zm15.91,18.2A71.45,71.45,0,0,1,199.54,104H148.12A71.84,71.84,0,0,1,189.39,74.43ZM128,40a71.87,71.87,0,0,1,19,2.57A88.36,88.36,0,0,0,83.33,104H56.46A72.08,72.08,0,0,1,128,40Zm36.66,152A8,8,0,0,0,160,199.3V208H96v-8.7A8,8,0,0,0,91.34,192a88.29,88.29,0,0,1-51-72H215.63A88.29,88.29,0,0,1,164.66,192Z" />
  </g>
    <text x="362" y="628" font-family="'Microsoft YaHei', 'PingFang SC', Arial, sans-serif" font-size="18" font-weight="800" fill="#FFFFFF">最终返回：真实存在的菜品 / 套餐推荐卡片与简短推荐理由</text>
  </g>
</svg>