<svg xmlns="http://www.w3.org/2000/svg" viewBox="0 0 1280 720" width="1280" height="720">
  <g id="background">
    <rect x="0" y="0" width="1280" height="720" fill="#FBFFF7" />
    <circle cx="468" cy="394" r="270" fill="#EAF7EF" />
    <circle cx="1012" cy="210" r="150" fill="#3A86FF" fill-opacity="0.10" />
  </g>
  <g id="header">
    <text x="56" y="74" font-family="'Trebuchet MS', 'Microsoft YaHei', 'PingFang SC', sans-serif" font-size="34" font-weight="800" fill="#182026">评价不是结束，是闭环开始</text>
    <text x="56" y="108" font-family="'Microsoft YaHei', 'PingFang SC', Arial, sans-serif" font-size="16" font-weight="700" fill="#4D5A57">用户评价经过规则、AI 和人工审核后，回到公开评分和影响统计。</text>
    <text x="1224" y="72" text-anchor="end" font-family="'Microsoft YaHei', 'PingFang SC', Arial, sans-serif" font-size="11" fill="#74807C">11 / 16</text>
  </g>
  <g id="cycle-arrows">
    <path d="M 480 188 C 618 212, 702 326, 668 466" fill="none" stroke="#1F8A70" stroke-width="4" stroke-linecap="round" stroke-opacity="0.45" />
    <polygon points="665,478 658,460 676,466" fill="#1F8A70" fill-opacity="0.55" />
    <path d="M 632 526 C 522 630, 346 626, 252 514" fill="none" stroke="#3A86FF" stroke-width="4" stroke-linecap="round" stroke-opacity="0.45" />
    <polygon points="244,504 262,512 248,523" fill="#3A86FF" fill-opacity="0.55" />
    <path d="M 214 448 C 152 304, 256 190, 402 184" fill="none" stroke="#FFB703" stroke-width="4" stroke-linecap="round" stroke-opacity="0.55" />
    <polygon points="414,184 397,194 397,174" fill="#FFB703" fill-opacity="0.65" />
  </g>
  <g id="center-governance">
    <circle cx="468" cy="394" r="96" fill="#FFFFFF" stroke="#BFD9CC" stroke-width="2" />
    
  <g transform="translate(426, 334) scale(0.328125)" fill="#1F8A70">
    <path d="M216,56v58.77c0,84.18-71.31,112.07-85.54,116.8a7.54,7.54,0,0,1-4.92,0C111.31,226.86,40,199,40,114.79V56a8,8,0,0,1,8-8H208A8,8,0,0,1,216,56Z" opacity="0.2" />
    <path d="M208,40H48A16,16,0,0,0,32,56v58.78c0,89.61,75.82,119.34,91,124.39a15.53,15.53,0,0,0,10,0c15.2-5.05,91-34.78,91-124.39V56A16,16,0,0,0,208,40Zm0,74.79c0,78.42-66.35,104.62-80,109.18-13.53-4.51-80-30.69-80-109.18V56H208ZM82.34,141.66a8,8,0,0,1,11.32-11.32L112,148.68l50.34-50.34a8,8,0,0,1,11.32,11.32l-56,56a8,8,0,0,1-11.32,0Z" />
  </g>
    <text x="468" y="446" text-anchor="middle" font-family="'Microsoft YaHei', 'PingFang SC', Arial, sans-serif" font-size="26" font-weight="800" fill="#182026">内容治理</text>
    <text x="468" y="478" text-anchor="middle" font-family="'Microsoft YaHei', 'PingFang SC', Arial, sans-serif" font-size="15" fill="#4D5A57">可审、可回退、可追踪</text>
  </g>
  <g id="stage-image-check">
    <circle cx="468" cy="172" r="54" fill="#FFFFFF" stroke="#BFD9CC" stroke-width="2" />
    
  <g transform="translate(442, 146) scale(0.203125)" fill="#22A06B">
    <path d="M224,128a96,96,0,1,1-96-96A96,96,0,0,1,224,128Z" opacity="0.2" />
    <path d="M173.66,98.34a8,8,0,0,1,0,11.32l-56,56a8,8,0,0,1-11.32,0l-24-24a8,8,0,0,1,11.32-11.32L112,148.69l50.34-50.35A8,8,0,0,1,173.66,98.34ZM232,128A104,104,0,1,1,128,24,104.11,104.11,0,0,1,232,128Zm-16,0a88,88,0,1,0-88,88A88.1,88.1,0,0,0,216,128Z" />
  </g>
    <text x="468" y="250" text-anchor="middle" font-family="'Microsoft YaHei', 'PingFang SC', Arial, sans-serif" font-size="16" font-weight="800" fill="#182026">图片先检查</text>
  </g>
  <g id="stage-local-rule">
    <circle cx="680" cy="320" r="54" fill="#FFFFFF" stroke="#BFD9CC" stroke-width="2" />
    
  <g transform="translate(654, 294) scale(0.203125)" fill="#1F8A70">
    <path d="M216,64V192H128V64Z" opacity="0.2" />
    <path d="M224,128a8,8,0,0,1-8,8H128a8,8,0,0,1,0-16h88A8,8,0,0,1,224,128ZM128,72h88a8,8,0,0,0,0-16H128a8,8,0,0,0,0,16Zm88,112H128a8,8,0,0,0,0,16h88a8,8,0,0,0,0-16ZM82.34,42.34,56,68.69,45.66,58.34A8,8,0,0,0,34.34,69.66l16,16a8,8,0,0,0,11.32,0l32-32A8,8,0,0,0,82.34,42.34Zm0,64L56,132.69,45.66,122.34a8,8,0,0,0-11.32,11.32l16,16a8,8,0,0,0,11.32,0l32-32a8,8,0,0,0-11.32-11.32Zm0,64L56,196.69,45.66,186.34a8,8,0,0,0-11.32,11.32l16,16a8,8,0,0,0,11.32,0l32-32a8,8,0,0,0-11.32-11.32Z" />
  </g>
    <text x="754" y="326" font-family="'Microsoft YaHei', 'PingFang SC', Arial, sans-serif" font-size="16" font-weight="800" fill="#182026">本地规则</text>
  </g>
  <g id="stage-ai">
    <circle cx="600" cy="568" r="54" fill="#FFFFFF" stroke="#BFD9CC" stroke-width="2" />
    
  <g transform="translate(574, 542) scale(0.203125)" fill="#3A86FF">
    <path d="M240,124a48,48,0,0,1-32,45.27h0V176a40,40,0,0,1-80,0,40,40,0,0,1-80,0v-6.73h0a48,48,0,0,1,0-90.54V72a40,40,0,0,1,80,0,40,40,0,0,1,80,0v6.73A48,48,0,0,1,240,124Z" opacity="0.2" />
    <path d="M248,124a56.11,56.11,0,0,0-32-50.61V72a48,48,0,0,0-88-26.49A48,48,0,0,0,40,72v1.39a56,56,0,0,0,0,101.2V176a48,48,0,0,0,88,26.49A48,48,0,0,0,216,176v-1.41A56.09,56.09,0,0,0,248,124ZM88,208a32,32,0,0,1-31.81-28.56A55.87,55.87,0,0,0,64,180h8a8,8,0,0,0,0-16H64A40,40,0,0,1,50.67,86.27,8,8,0,0,0,56,78.73V72a32,32,0,0,1,64,0v68.26A47.8,47.8,0,0,0,88,128a8,8,0,0,0,0,16,32,32,0,0,1,0,64Zm104-44h-8a8,8,0,0,0,0,16h8a55.87,55.87,0,0,0,7.81-.56A32,32,0,1,1,168,144a8,8,0,0,0,0-16,47.8,47.8,0,0,0-32,12.26V72a32,32,0,0,1,64,0v6.73a8,8,0,0,0,5.33,7.54A40,40,0,0,1,192,164Zm16-52a8,8,0,0,1-8,8h-4a36,36,0,0,1-36-36V80a8,8,0,0,1,16,0v4a20,20,0,0,0,20,20h4A8,8,0,0,1,208,112ZM60,120H56a8,8,0,0,1,0-16h4A20,20,0,0,0,80,84V80a8,8,0,0,1,16,0v4A36,36,0,0,1,60,120Z" />
  </g>
    <text x="600" y="646" text-anchor="middle" font-family="'Microsoft YaHei', 'PingFang SC', Arial, sans-serif" font-size="16" font-weight="800" fill="#182026">AI 辅助</text>
  </g>
  <g id="stage-human">
    <circle cx="286" cy="568" r="54" fill="#FFFFFF" stroke="#BFD9CC" stroke-width="2" />
    
  <g transform="translate(260, 542) scale(0.203125)" fill="#FFB703">
    <path d="M208,48V216a8,8,0,0,1-8,8H56a8,8,0,0,1-8-8V48a8,8,0,0,1,8-8H96a39.83,39.83,0,0,0-8,24v8h80V64a39.83,39.83,0,0,0-8-24h40A8,8,0,0,1,208,48Z" opacity="0.2" />
    <path d="M168,152a8,8,0,0,1-8,8H96a8,8,0,0,1,0-16h64A8,8,0,0,1,168,152Zm-8-40H96a8,8,0,0,0,0,16h64a8,8,0,0,0,0-16Zm56-64V216a16,16,0,0,1-16,16H56a16,16,0,0,1-16-16V48A16,16,0,0,1,56,32H92.26a47.92,47.92,0,0,1,71.48,0H200A16,16,0,0,1,216,48ZM96,64h64a32,32,0,0,0-64,0ZM200,48H173.25A47.93,47.93,0,0,1,176,64v8a8,8,0,0,1-8,8H88a8,8,0,0,1-8-8V64a47.93,47.93,0,0,1,2.75-16H56V216H200Z" />
  </g>
    <text x="286" y="646" text-anchor="middle" font-family="'Microsoft YaHei', 'PingFang SC', Arial, sans-serif" font-size="16" font-weight="800" fill="#182026">人工审核</text>
  </g>
  <g id="stage-publish">
    <circle cx="246" cy="320" r="54" fill="#FFFFFF" stroke="#BFD9CC" stroke-width="2" />
    
  <g transform="translate(220, 294) scale(0.203125)" fill="#1F8A70">
    <path d="M224,128A96,96,0,0,1,79.93,211.11h0L42.54,223.58a8,8,0,0,1-10.12-10.12l12.47-37.39h0A96,96,0,1,1,224,128Z" opacity="0.2" />
    <path d="M128,24A104,104,0,0,0,36.18,176.88L24.83,210.93a16,16,0,0,0,20.24,20.24l34.05-11.35A104,104,0,1,0,128,24Zm0,192a87.87,87.87,0,0,1-44.06-11.81,8,8,0,0,0-6.54-.67L40,216,52.47,178.6a8,8,0,0,0-.66-6.54A88,88,0,1,1,128,216Z" />
  </g>
    <text x="126" y="326" font-family="'Microsoft YaHei', 'PingFang SC', Arial, sans-serif" font-size="16" font-weight="800" fill="#182026">进入评分</text>
  </g>
  <g id="right-thesis">
    <path fill="#FFFFFF" stroke="#BFD9CC" stroke-width="1.5" d="M850,244 H1144 A30,30 0 0 1 1174,274 V446 A30,30 0 0 1 1144,476 H850 A30,30 0 0 1 820,446 V274 A30,30 0 0 1 850,244 Z" />
    <text x="858" y="302" font-family="'Trebuchet MS', 'Microsoft YaHei', 'PingFang SC', sans-serif" font-size="44" font-weight="800" fill="#1F8A70">Review loop</text>
    <text x="858" y="356" font-family="'Microsoft YaHei', 'PingFang SC', Arial, sans-serif" font-size="22" font-weight="800" fill="#182026">真实评价进入公共信息池</text>
    <text fill="#4D5A57" font-size="18" font-family="'Microsoft YaHei', 'PingFang SC', Arial, sans-serif" x="858" y="402">不确定时不误发布，转交人工；</text><text fill="#4D5A57" font-size="18" font-family="'Microsoft YaHei', 'PingFang SC', Arial, sans-serif" x="858" y="434">发布后参与评分和阅读影响力。</text></g>
</svg>