<svg xmlns="http://www.w3.org/2000/svg" viewBox="0 0 1280 720" width="1280" height="720">
  <g id="background">
    <rect x="0" y="0" width="1280" height="720" fill="#FBFFF7" />
  </g>
  <g id="header">
    <text x="56" y="64" font-family="'Trebuchet MS', 'Microsoft YaHei', 'PingFang SC', sans-serif" font-size="34" font-weight="800" fill="#182026">工程细节保护体验</text>
    <text x="56" y="96" font-family="'Microsoft YaHei', 'PingFang SC', Arial, sans-serif" font-size="16" font-weight="700" fill="#4D5A57">校园隔离、游标分页、幂等写入和统一错误格式，让系统在真实网络里更稳。</text>
    <text x="1224" y="72" text-anchor="end" font-family="'Microsoft YaHei', 'PingFang SC', Arial, sans-serif" font-size="11" fill="#74807C">12 / 16</text>
  </g>
  <g id="pillar-campus">
    <path fill="#FFFFFF" stroke="#BFD9CC" stroke-width="1.5" d="M92,142 H316 A22,22 0 0 1 338,164 V608 A22,22 0 0 1 316,630 H92 A22,22 0 0 1 70,608 V164 A22,22 0 0 1 92,142 Z" />
    <path d="M 92 142 H 316 A 22 22 0 0 1 338 164 V 258 H 70 V 164 A 22 22 0 0 1 92 142 Z" fill="#EAF7EF" />
    <text x="204" y="202" text-anchor="middle" font-family="'Trebuchet MS', 'Microsoft YaHei', 'PingFang SC', sans-serif" font-size="48" font-weight="800" fill="#1F8A70">01</text>
    <text x="204" y="238" text-anchor="middle" font-family="'Microsoft YaHei', 'PingFang SC', Arial, sans-serif" font-size="20" font-weight="800" fill="#182026">校园隔离</text>
    
  <g transform="translate(98, 294) scale(0.140625)" fill="#1F8A70">
    <path d="M160,200l-32,32L96,200Z" opacity="0.2" />
    <path d="M184,32a8,8,0,0,0-8,8v60.69l-48,48-48-48V40a8,8,0,0,0-16,0v64a8,8,0,0,0,2.34,5.66L120,163.31V192H96a8,8,0,0,0-5.66,13.66l32,32a8,8,0,0,0,11.32,0l32-32A8,8,0,0,0,160,192H136V163.31l53.66-53.65A8,8,0,0,0,192,104V40A8,8,0,0,0,184,32ZM128,220.69,115.31,208h25.38Z" />
  </g>
    <text x="148" y="314" font-family="'Microsoft YaHei', 'PingFang SC', Arial, sans-serif" font-size="16" font-weight="800" fill="#182026">所有业务资源带 campus_id</text>
    <text font-family="'Microsoft YaHei', 'PingFang SC', Arial, sans-serif" font-size="15" fill="#4D5A57" x="100" y="364">服务端校验引用资源是否</text><text font-family="'Microsoft YaHei', 'PingFang SC', Arial, sans-serif" font-size="15" fill="#4D5A57" x="100" y="390">属于同一校园，避免只靠</text><text font-family="'Microsoft YaHei', 'PingFang SC', Arial, sans-serif" font-size="15" fill="#4D5A57" x="100" y="416">前端筛选造成数据越界。</text><path fill="#EAF7EF" d="M114,522 H294 A14,14 0 0 1 308,536 V552 A14,14 0 0 1 294,566 H114 A14,14 0 0 1 100,552 V536 A14,14 0 0 1 114,522 Z" />
    <text x="204" y="550" text-anchor="middle" font-family="Consolas, 'Courier New', monospace" font-size="16" font-weight="700" fill="#1F8A70">campus_id</text>
  </g>
  <g id="pillar-cursor">
    <path fill="#FFFFFF" stroke="#BFD9CC" stroke-width="1.5" d="M388,142 H612 A22,22 0 0 1 634,164 V608 A22,22 0 0 1 612,630 H388 A22,22 0 0 1 366,608 V164 A22,22 0 0 1 388,142 Z" />
    <path d="M 388 142 H 612 A 22 22 0 0 1 634 164 V 258 H 366 V 164 A 22 22 0 0 1 388 142 Z" fill="#EAF7EF" />
    <text x="500" y="202" text-anchor="middle" font-family="'Trebuchet MS', 'Microsoft YaHei', 'PingFang SC', sans-serif" font-size="48" font-weight="800" fill="#3A86FF">02</text>
    <text x="500" y="238" text-anchor="middle" font-family="'Microsoft YaHei', 'PingFang SC', Arial, sans-serif" font-size="20" font-weight="800" fill="#182026">游标分页</text>
    
  <g transform="translate(394, 294) scale(0.140625)" fill="#3A86FF">
    <path d="M224,200a24,24,0,1,1-24-24A24,24,0,0,1,224,200Z" opacity="0.2" />
    <path d="M200,168a32.06,32.06,0,0,0-31,24H72a32,32,0,0,1,0-64h96a40,40,0,0,0,0-80H72a8,8,0,0,0,0,16h96a24,24,0,0,1,0,48H72a48,48,0,0,0,0,96h97a32,32,0,1,0,31-40Zm0,48a16,16,0,1,1,16-16A16,16,0,0,1,200,216Z" />
  </g>
    <text x="444" y="314" font-family="'Microsoft YaHei', 'PingFang SC', Arial, sans-serif" font-size="16" font-weight="800" fill="#182026">持续加载不依赖 offset</text>
    <text font-family="'Microsoft YaHei', 'PingFang SC', Arial, sans-serif" font-size="15" fill="#4D5A57" x="396" y="364">推荐流、评价和后台列表</text><text font-family="'Microsoft YaHei', 'PingFang SC', Arial, sans-serif" font-size="15" fill="#4D5A57" x="396" y="390">使用不透明游标，减少</text><text font-family="'Microsoft YaHei', 'PingFang SC', Arial, sans-serif" font-size="15" fill="#4D5A57" x="396" y="416">新增数据带来的重复遗漏。</text><path fill="#EAF7EF" d="M410,522 H590 A14,14 0 0 1 604,536 V552 A14,14 0 0 1 590,566 H410 A14,14 0 0 1 396,552 V536 A14,14 0 0 1 410,522 Z" />
    <text x="500" y="550" text-anchor="middle" font-family="Consolas, 'Courier New', monospace" font-size="16" font-weight="700" fill="#3A86FF">next_cursor</text>
  </g>
  <g id="pillar-idempotent">
    <path fill="#FFFFFF" stroke="#BFD9CC" stroke-width="1.5" d="M684,142 H908 A22,22 0 0 1 930,164 V608 A22,22 0 0 1 908,630 H684 A22,22 0 0 1 662,608 V164 A22,22 0 0 1 684,142 Z" />
    <path d="M 684 142 H 908 A 22 22 0 0 1 930 164 V 258 H 662 V 164 A 22 22 0 0 1 684 142 Z" fill="#EAF7EF" />
    <text x="796" y="202" text-anchor="middle" font-family="'Trebuchet MS', 'Microsoft YaHei', 'PingFang SC', sans-serif" font-size="48" font-weight="800" fill="#FFB703">03</text>
    <text x="796" y="238" text-anchor="middle" font-family="'Microsoft YaHei', 'PingFang SC', Arial, sans-serif" font-size="20" font-weight="800" fill="#182026">幂等写入</text>
    
  <g transform="translate(690, 294) scale(0.140625)" fill="#22A06B">
    <path d="M224,128a96,96,0,1,1-96-96A96,96,0,0,1,224,128Z" opacity="0.2" />
    <path d="M173.66,98.34a8,8,0,0,1,0,11.32l-56,56a8,8,0,0,1-11.32,0l-24-24a8,8,0,0,1,11.32-11.32L112,148.69l50.34-50.35A8,8,0,0,1,173.66,98.34ZM232,128A104,104,0,1,1,128,24,104.11,104.11,0,0,1,232,128Zm-16,0a88,88,0,1,0-88,88A88.1,88.1,0,0,0,216,128Z" />
  </g>
    <text x="740" y="314" font-family="'Microsoft YaHei', 'PingFang SC', Arial, sans-serif" font-size="16" font-weight="800" fill="#182026">移动网络重试也安全</text>
    <text font-family="'Microsoft YaHei', 'PingFang SC', Arial, sans-serif" font-size="15" fill="#4D5A57" x="692" y="364">相同键和相同请求重放</text><text font-family="'Microsoft YaHei', 'PingFang SC', Arial, sans-serif" font-size="15" fill="#4D5A57" x="692" y="390">原响应；相同键不同内容</text><text font-family="'Microsoft YaHei', 'PingFang SC', Arial, sans-serif" font-size="15" fill="#4D5A57" x="692" y="416">返回 409。</text><path fill="#EAF7EF" d="M706,522 H886 A14,14 0 0 1 900,536 V552 A14,14 0 0 1 886,566 H706 A14,14 0 0 1 692,552 V536 A14,14 0 0 1 706,522 Z" />
    <text x="796" y="550" text-anchor="middle" font-family="Consolas, 'Courier New', monospace" font-size="15" font-weight="700" fill="#1F8A70">Idempotency-Key</text>
  </g>
  <g id="pillar-problem">
    <path fill="#FFFFFF" stroke="#BFD9CC" stroke-width="1.5" d="M980,142 H1188 A22,22 0 0 1 1210,164 V608 A22,22 0 0 1 1188,630 H980 A22,22 0 0 1 958,608 V164 A22,22 0 0 1 980,142 Z" />
    <path d="M 980 142 H 1188 A 22 22 0 0 1 1210 164 V 258 H 958 V 164 A 22 22 0 0 1 980 142 Z" fill="#EAF7EF" />
    <text x="1084" y="202" text-anchor="middle" font-family="'Trebuchet MS', 'Microsoft YaHei', 'PingFang SC', sans-serif" font-size="48" font-weight="800" fill="#1F8A70">04</text>
    <text x="1084" y="238" text-anchor="middle" font-family="'Microsoft YaHei', 'PingFang SC', Arial, sans-serif" font-size="20" font-weight="800" fill="#182026">统一错误</text>
    
  <g transform="translate(984, 294) scale(0.140625)" fill="#3A86FF">
    <path d="M208,56V200a8,8,0,0,1-8,8H56a8,8,0,0,1-8-8V56a8,8,0,0,1,8-8H200A8,8,0,0,1,208,56Z" opacity="0.2" />
    <path d="M58.34,101.66l-32-32a8,8,0,0,1,0-11.32l32-32A8,8,0,0,1,69.66,37.66L43.31,64,69.66,90.34a8,8,0,0,1-11.32,11.32Zm40,0a8,8,0,0,0,11.32,0l32-32a8,8,0,0,0,0-11.32l-32-32A8,8,0,0,0,98.34,37.66L124.69,64,98.34,90.34A8,8,0,0,0,98.34,101.66ZM200,40H176a8,8,0,0,0,0,16h24V200H56V136a8,8,0,0,0-16,0v64a16,16,0,0,0,16,16H200a16,16,0,0,0,16-16V56A16,16,0,0,0,200,40Z" />
  </g>
    <text x="1034" y="314" font-family="'Microsoft YaHei', 'PingFang SC', Arial, sans-serif" font-size="16" font-weight="800" fill="#182026">Problem Details</text>
    <text font-family="'Microsoft YaHei', 'PingFang SC', Arial, sans-serif" font-size="15" fill="#4D5A57" x="984" y="364">客户端稳定展示错误，</text><text font-family="'Microsoft YaHei', 'PingFang SC', Arial, sans-serif" font-size="15" fill="#4D5A57" x="984" y="390">服务端通过请求 ID</text><text font-family="'Microsoft YaHei', 'PingFang SC', Arial, sans-serif" font-size="15" fill="#4D5A57" x="984" y="416">关联日志和排查。</text><path fill="#EAF7EF" d="M998,522 H1170 A14,14 0 0 1 1184,536 V552 A14,14 0 0 1 1170,566 H998 A14,14 0 0 1 984,552 V536 A14,14 0 0 1 998,522 Z" />
    <text x="1084" y="550" text-anchor="middle" font-family="Consolas, 'Courier New', monospace" font-size="15" font-weight="700" fill="#3A86FF">RFC 9457 style</text>
  </g>
  <g id="footer">
    <text x="56" y="690" font-family="'Microsoft YaHei', 'PingFang SC', Arial, sans-serif" font-size="13" fill="#74807C">API design · reliability details that judges can verify in code and docs</text>
  </g>
</svg>