<svg xmlns="http://www.w3.org/2000/svg" viewBox="0 0 800 600" role="img" aria-label="海盐青提冷萃插画">
  <defs><linearGradient id="bg" x1="0" y1="0" x2="1" y2="1"><stop stop-color="#dff7e7"/><stop offset="1" stop-color="#78d4ad"/></linearGradient><linearGradient id="tea" x1="0" y1="0" x2="0" y2="1"><stop stop-color="#c8f2be"/><stop offset="1" stop-color="#72b86d"/></linearGradient></defs>
  <rect width="800" height="600" fill="url(#bg)"/><circle cx="650" cy="120" r="160" fill="#fff" opacity=".2"/><ellipse cx="400" cy="525" rx="170" ry="38" fill="#286c58" opacity=".2"/>
  <path d="M258 110h284l-34 402H292z" fill="#edf9f1" opacity=".9" stroke="#244c41" stroke-width="14"/><path d="M280 216h240l-25 280H305z" fill="url(#tea)"/>
  <path d="M300 185c30-55 170-55 200 0v52H300z" fill="#fffaf2"/><path d="M432 30l-34 221" stroke="#244c41" stroke-width="18" stroke-linecap="round"/>
  <g fill="#8ecf72" stroke="#336c4d" stroke-width="5"><circle cx="344" cy="313" r="31"/><circle cx="405" cy="344" r="34"/><circle cx="461" cy="300" r="30"/><circle cx="363" cy="405" r="28"/><circle cx="450" cy="417" r="32"/></g><g fill="#e8fff0" opacity=".78"><rect x="321" y="243" width="54" height="54" rx="9" transform="rotate(12 348 270)"/><rect x="419" y="236" width="48" height="48" rx="8" transform="rotate(-10 443 260)"/></g>
</svg>
