<svg xmlns="http://www.w3.org/2000/svg" viewBox="0 0 800 600" role="img" aria-label="酸汤肥牛米线插画">
  <defs><linearGradient id="bg" x1="0" y1="0" x2="1" y2="1"><stop stop-color="#ffe3cf"/><stop offset="1" stop-color="#ff8b66"/></linearGradient></defs><rect width="800" height="600" fill="url(#bg)"/><circle cx="140" cy="90" r="120" fill="#fff" opacity=".18"/>
  <ellipse cx="400" cy="472" rx="278" ry="66" fill="#8b2f24" opacity=".22"/><path d="M132 260h536l-76 230c-12 38-49 64-90 64H298c-41 0-78-26-90-64z" fill="#f7ede0" stroke="#42261f" stroke-width="14"/>
  <ellipse cx="400" cy="260" rx="268" ry="102" fill="#fff8e9" stroke="#42261f" stroke-width="14"/><ellipse cx="400" cy="267" rx="235" ry="74" fill="#ef8f3d"/>
  <g fill="none" stroke="#ffe28f" stroke-width="13" stroke-linecap="round"><path d="M220 278c70-80 120 74 190-10s125 60 177-11"/><path d="M236 303c74-74 129 70 200-6s104 36 147 9"/><path d="M261 247c48-48 93 37 143-5s96 17 131-7"/></g>
  <g stroke="#7f302a" stroke-width="5" fill="#c94a42"><path d="M270 220c31-34 82-18 87 27-35 25-72 13-87-27z"/><path d="M461 217c35-31 82-8 77 37-39 18-72 1-77-37z"/></g><g fill="#54a95c"><circle cx="335" cy="291" r="12"/><circle cx="510" cy="288" r="11"/><circle cx="420" cy="222" r="10"/></g>
</svg>
