<svg xmlns="http://www.w3.org/2000/svg" viewBox="0 0 800 600" role="img" aria-label="炭火烤串套餐插画">
  <defs><linearGradient id="bg" x1="0" y1="0" x2="1" y2="1"><stop stop-color="#3a2522"/><stop offset="1" stop-color="#9a4531"/></linearGradient><radialGradient id="fire"><stop stop-color="#ffd55a"/><stop offset=".55" stop-color="#ff792d"/><stop offset="1" stop-color="#d93f28"/></radialGradient></defs><rect width="800" height="600" fill="url(#bg)"/>
  <ellipse cx="400" cy="470" rx="285" ry="92" fill="#1d1918" stroke="#efb06c" stroke-width="10"/><g fill="url(#fire)" opacity=".95"><path d="M240 468c-42-78 28-106 24-169 79 70 24 116 69 169z"/><path d="M330 475c-49-113 66-132 62-226 102 101 26 153 86 226z"/><path d="M463 472c-34-83 55-103 64-169 66 87 10 117 42 169z"/></g>
  <g stroke="#f0d2a2" stroke-width="10" stroke-linecap="round"><path d="M180 122l421 315"/><path d="M232 92l393 337"/><path d="M160 186l400 251"/></g>
  <g fill="#d86f3e" stroke="#5e2a22" stroke-width="6"><rect x="242" y="160" width="86" height="62" rx="20" transform="rotate(37 285 191)"/><rect x="342" y="235" width="86" height="62" rx="20" transform="rotate(37 385 266)"/><rect x="444" y="312" width="86" height="62" rx="20" transform="rotate(37 487 343)"/></g><g fill="#76a54d" stroke="#425b32" stroke-width="5"><rect x="312" y="132" width="78" height="55" rx="17" transform="rotate(41 351 159)"/><rect x="407" y="216" width="78" height="55" rx="17" transform="rotate(41 446 244)"/><rect x="505" y="300" width="78" height="55" rx="17" transform="rotate(41 544 328)"/></g>
</svg>
